<svg xmlns="http://www.w3.org/2000/svg" viewBox="0 0 64 64">
  <defs>
    <linearGradient id="g" x1="0%" y1="0%" x2="100%" y2="100%">
      <stop offset="0%" stop-color="#ff00ff" />
      <stop offset="50%" stop-color="#00c6ff" />
      <stop offset="100%" stop-color="#fbae3c" />
    </linearGradient>
  </defs>
  <circle cx="32" cy="32" r="30" fill="#080310" stroke="url(#g)" stroke-width="4" />
  <path d="M18 34c-4-1-8-6-8-12 4 0 8 4 9 7m3 12c-3 2-7 2-10 0 1-3 5-6 8-6m25-1c4-1 8-6 8-12-4 0-8 4-9 7m-3 12c3 2 7 2 10 0-1-3-5-6-8-6" fill="none" stroke="url(#g)" stroke-width="3" stroke-linecap="round" />
</svg>
